<svg width="153" height="52" viewBox="0 0 153 52" fill="none" xmlns="http://www.w3.org/2000/svg">
<path d="M5.92 29.12V25.56H12.28C14.6 25.56 16.3333 25.1067 17.48 24.2C18.6533 23.2933 19.24 21.8 19.24 19.72C19.24 17.8533 18.6933 16.4533 17.6 15.52C16.5333 14.5867 14.88 14.12 12.64 14.12H5.92V10.6H12.72C14.4533 10.6 15.9867 10.8 17.32 11.2C18.68 11.6 19.8267 12.1867 20.76 12.96C21.72 13.7333 22.44 14.7067 22.92 15.88C23.4267 17.0267 23.68 18.36 23.68 19.88C23.68 21.88 23.2267 23.5733 22.32 24.96C21.4133 26.32 20.0667 27.36 18.28 28.08C16.52 28.7733 14.3333 29.12 11.72 29.12H5.92ZM3.28 37V10.6H7.64V37H3.28ZM38.8706 37.52C36.9506 37.52 35.244 37.2133 33.7506 36.6C32.284 35.96 31.0306 35.0533 29.9906 33.88C28.9773 32.7067 28.204 31.28 27.6706 29.6C27.164 27.92 26.9106 26.0267 26.9106 23.92C26.9106 20.8267 27.4306 18.2667 28.4706 16.24C29.5106 14.1867 30.9373 12.6533 32.7506 11.64C34.564 10.6 36.6306 10.08 38.9506 10.08C40.764 10.08 42.404 10.3867 43.8706 11C45.3373 11.5867 46.5906 12.48 47.6306 13.68C48.6973 14.8533 49.5106 16.3067 50.0706 18.04C50.6306 19.7467 50.9106 21.6933 50.9106 23.88C50.9106 26.0133 50.644 27.9333 50.1106 29.64C49.5773 31.32 48.7906 32.7467 47.7506 33.92C46.7106 35.0933 45.444 35.9867 43.9506 36.6C42.484 37.2133 40.7906 37.52 38.8706 37.52ZM38.9506 33.88C40.5506 33.88 41.9106 33.4933 43.0306 32.72C44.1506 31.9467 45.004 30.84 45.5906 29.4C46.1773 27.9333 46.4706 26.1467 46.4706 24.04C46.4706 21.88 46.164 20.04 45.5506 18.52C44.964 17 44.0973 15.84 42.9506 15.04C41.8306 14.2133 40.4706 13.8 38.8706 13.8C37.324 13.8 35.9773 14.2 34.8306 15C33.7106 15.7733 32.844 16.9067 32.2306 18.4C31.644 19.8933 31.3506 21.7333 31.3506 23.92C31.3506 25.52 31.524 26.9467 31.8706 28.2C32.2173 29.4267 32.7106 30.4667 33.3506 31.32C33.9906 32.1467 34.7773 32.7867 35.7106 33.24C36.6706 33.6667 37.7506 33.88 38.9506 33.88ZM55.7034 37V10.6H60.0634V37H55.7034ZM56.8634 37V33.24H71.9834V37H56.8634ZM78.2994 37V28.56L68.8994 10.6H74.0194L80.3794 24.44H80.5794L86.9394 10.6H92.0594L82.6594 28.52V37H78.2994ZM103.897 37.52C102.164 37.52 100.617 37.3467 99.2569 37C97.9235 36.6267 96.7902 36.0933 95.8569 35.4C94.9502 34.68 94.2569 33.8 93.7769 32.76C93.3235 31.6933 93.1102 30.4667 93.1369 29.08L97.0169 28.04C96.9635 29.3733 97.2169 30.48 97.7769 31.36C98.3369 32.24 99.1635 32.9067 100.257 33.36C101.377 33.7867 102.657 34 104.097 34C105.51 34 106.697 33.8267 107.657 33.48C108.617 33.1333 109.337 32.6667 109.817 32.08C110.324 31.4667 110.577 30.7733 110.577 30C110.577 29.12 110.27 28.4267 109.657 27.92C109.07 27.3867 108.284 26.9733 107.297 26.68C106.31 26.36 105.204 26.0667 103.977 25.8C102.724 25.5333 101.484 25.2267 100.257 24.88C99.0302 24.5333 97.9102 24.08 96.8969 23.52C95.9102 22.9333 95.1102 22.1867 94.4969 21.28C93.9102 20.3733 93.6169 19.2267 93.6169 17.84C93.6169 16.24 94.0169 14.8667 94.8169 13.72C95.6169 12.5733 96.7502 11.68 98.2169 11.04C99.7102 10.4 101.47 10.08 103.497 10.08C105.524 10.08 107.297 10.4 108.817 11.04C110.364 11.6533 111.577 12.56 112.457 13.76C113.364 14.9333 113.83 16.36 113.857 18.04L109.857 19.08C109.857 18.1733 109.697 17.3733 109.377 16.68C109.084 15.9867 108.657 15.4133 108.097 14.96C107.537 14.5067 106.87 14.1733 106.097 13.96C105.324 13.72 104.444 13.6 103.457 13.6C102.31 13.6 101.31 13.7733 100.457 14.12C99.6035 14.44 98.9369 14.8933 98.4569 15.48C98.0035 16.04 97.7769 16.7067 97.7769 17.48C97.7769 18.44 98.1102 19.2 98.7769 19.76C99.4702 20.2933 100.377 20.7333 101.497 21.08C102.617 21.4 103.817 21.7067 105.097 22C106.244 22.24 107.377 22.5333 108.497 22.88C109.644 23.2 110.684 23.64 111.617 24.2C112.577 24.76 113.337 25.4933 113.897 26.4C114.484 27.3067 114.777 28.4667 114.777 29.88C114.777 31.4267 114.364 32.7733 113.537 33.92C112.737 35.0667 111.537 35.96 109.937 36.6C108.337 37.2133 106.324 37.52 103.897 37.52ZM119.202 37V10.6H123.642V37H119.202ZM127.138 37L136.338 10.6H142.698L151.898 37H147.178L139.778 14.16H139.258L131.858 37H127.138ZM131.738 31.32V28.12H147.858V31.32H131.738Z" fill="#0054C9"/>
<rect x="3" y="48" width="139" height="4" fill="url(#paint0_linear_8_3)"/>
<rect x="145" y="48" width="7" height="4" fill="#0054C9"/>
<defs>
<linearGradient id="paint0_linear_8_3" x1="3" y1="50" x2="142" y2="50" gradientUnits="userSpaceOnUse">
<stop stop-color="#0054C9" stop-opacity="0.15"/>
<stop offset="0.5" stop-color="#0054C9" stop-opacity="0.55"/>
<stop offset="1" stop-color="#0054C9"/>
</linearGradient>
</defs>
</svg>
