<svg width="235" height="89" viewBox="0 0 235 89" fill="none" xmlns="http://www.w3.org/2000/svg">
<circle cx="50.0377" cy="59.3606" r="21.2895" transform="rotate(-156 50.0377 59.3606)" stroke="#008EC2" stroke-width="1.5"/>
<circle cx="46.24" cy="49.4672" r="25.2566" transform="rotate(-156 46.24 49.4672)" stroke="#008EC2" stroke-width="1.5"/>
<circle cx="42.4423" cy="39.5737" r="29.2237" transform="rotate(-156 42.4423 39.5737)" stroke="#008EC2" stroke-width="1.5"/>
<path d="M102.276 48.3467H93.1592V44.667H102.276C104.042 44.667 105.472 44.3857 106.565 43.8232C107.659 43.2607 108.456 42.4795 108.956 41.4795C109.472 40.4795 109.729 39.3388 109.729 38.0576C109.729 36.8857 109.472 35.7842 108.956 34.7529C108.456 33.7217 107.659 32.8935 106.565 32.2685C105.472 31.6279 104.042 31.3076 102.276 31.3076H94.2139V61.7295H89.6904V27.6045H102.276C104.854 27.6045 107.034 28.0498 108.815 28.9404C110.597 29.831 111.948 31.0654 112.87 32.6435C113.792 34.206 114.253 35.9951 114.253 38.0107C114.253 40.1982 113.792 42.0654 112.87 43.6123C111.948 45.1592 110.597 46.3388 108.815 47.1513C107.034 47.9482 104.854 48.3467 102.276 48.3467ZM116.879 49.331V48.792C116.879 46.9638 117.144 45.2685 117.676 43.706C118.207 42.1279 118.973 40.7607 119.973 39.6045C120.973 38.4326 122.184 37.5263 123.605 36.8857C125.027 36.2295 126.621 35.9013 128.387 35.9013C130.168 35.9013 131.769 36.2295 133.191 36.8857C134.629 37.5263 135.848 38.4326 136.848 39.6045C137.863 40.7607 138.637 42.1279 139.168 43.706C139.699 45.2685 139.965 46.9638 139.965 48.792V49.331C139.965 51.1592 139.699 52.8545 139.168 54.417C138.637 55.9795 137.863 57.3467 136.848 58.5185C135.848 59.6748 134.637 60.581 133.215 61.2373C131.809 61.8779 130.215 62.1982 128.434 62.1982C126.652 62.1982 125.051 61.8779 123.629 61.2373C122.207 60.581 120.988 59.6748 119.973 58.5185C118.973 57.3467 118.207 55.9795 117.676 54.417C117.144 52.8545 116.879 51.1592 116.879 49.331ZM121.215 48.792V49.331C121.215 50.5967 121.363 51.792 121.66 52.917C121.957 54.0263 122.402 55.0107 122.996 55.8701C123.605 56.7295 124.363 57.4092 125.269 57.9092C126.176 58.3935 127.23 58.6357 128.434 58.6357C129.621 58.6357 130.66 58.3935 131.551 57.9092C132.457 57.4092 133.207 56.7295 133.801 55.8701C134.394 55.0107 134.84 54.0263 135.137 52.917C135.449 51.792 135.605 50.5967 135.605 49.331V48.792C135.605 47.542 135.449 46.3623 135.137 45.2529C134.84 44.1279 134.387 43.1357 133.777 42.2763C133.184 41.4013 132.434 40.7138 131.527 40.2138C130.637 39.7138 129.59 39.4638 128.387 39.4638C127.199 39.4638 126.152 39.7138 125.246 40.2138C124.355 40.7138 123.605 41.4013 122.996 42.2763C122.402 43.1357 121.957 44.1279 121.66 45.2529C121.363 46.3623 121.215 47.542 121.215 48.792ZM149.153 25.7295V61.7295H144.794V25.7295H149.153ZM162.279 59.1045L169.334 36.3701H173.974L163.803 65.6435C163.568 66.2685 163.256 66.9404 162.865 67.6592C162.49 68.3935 162.006 69.0888 161.412 69.7451C160.818 70.4013 160.099 70.9326 159.256 71.3388C158.428 71.7607 157.435 71.9717 156.279 71.9717C155.935 71.9717 155.498 71.9248 154.967 71.831C154.435 71.7373 154.06 71.6592 153.842 71.5967L153.818 68.081C153.943 68.0967 154.139 68.1123 154.404 68.1279C154.685 68.1592 154.881 68.1748 154.99 68.1748C155.974 68.1748 156.81 68.042 157.498 67.7763C158.185 67.5263 158.764 67.0967 159.232 66.4873C159.717 65.8935 160.131 65.0732 160.474 64.0263L162.279 59.1045ZM157.099 36.3701L163.685 56.0576L164.81 60.6279L161.693 62.2217L152.365 36.3701H157.099ZM191.694 55.0029C191.694 54.3779 191.554 53.7998 191.272 53.2685C191.007 52.7217 190.452 52.2295 189.608 51.792C188.78 51.3388 187.53 50.9482 185.858 50.6201C184.452 50.3232 183.179 49.9717 182.038 49.5654C180.913 49.1592 179.952 48.667 179.155 48.0888C178.374 47.5107 177.772 46.831 177.35 46.0498C176.929 45.2685 176.718 44.3545 176.718 43.3076C176.718 42.3076 176.936 41.3623 177.374 40.4717C177.827 39.581 178.46 38.792 179.272 38.1045C180.1 37.417 181.093 36.8779 182.249 36.4873C183.405 36.0967 184.694 35.9013 186.116 35.9013C188.147 35.9013 189.882 36.2607 191.319 36.9795C192.757 37.6982 193.858 38.6592 194.624 39.8623C195.389 41.0498 195.772 42.3701 195.772 43.8232H191.436C191.436 43.1201 191.225 42.4404 190.804 41.7842C190.397 41.1123 189.796 40.5576 188.999 40.1201C188.218 39.6826 187.257 39.4638 186.116 39.4638C184.913 39.4638 183.936 39.6513 183.186 40.0263C182.452 40.3857 181.913 40.8467 181.569 41.4092C181.241 41.9717 181.077 42.5654 181.077 43.1904C181.077 43.6592 181.155 44.081 181.311 44.456C181.483 44.8154 181.78 45.1513 182.202 45.4638C182.624 45.7607 183.218 46.042 183.983 46.3076C184.749 46.5732 185.725 46.8388 186.913 47.1045C188.991 47.5732 190.702 48.1357 192.046 48.792C193.389 49.4482 194.389 50.2529 195.046 51.206C195.702 52.1592 196.03 53.3154 196.03 54.6748C196.03 55.7842 195.796 56.7998 195.327 57.7217C194.874 58.6435 194.21 59.4404 193.335 60.1123C192.475 60.7685 191.444 61.2842 190.241 61.6592C189.054 62.0185 187.718 62.1982 186.233 62.1982C183.999 62.1982 182.108 61.7998 180.561 61.0029C179.014 60.206 177.843 59.1748 177.046 57.9092C176.249 56.6435 175.85 55.3076 175.85 53.9013H180.21C180.272 55.0888 180.616 56.0342 181.241 56.7373C181.866 57.4248 182.632 57.917 183.538 58.2138C184.444 58.4951 185.343 58.6357 186.233 58.6357C187.421 58.6357 188.413 58.4795 189.21 58.167C190.022 57.8545 190.639 57.4248 191.061 56.8779C191.483 56.331 191.694 55.706 191.694 55.0029ZM205.476 36.3701V61.7295H201.117V36.3701H205.476ZM200.789 29.6435C200.789 28.9404 201 28.3467 201.422 27.8623C201.859 27.3779 202.5 27.1357 203.344 27.1357C204.172 27.1357 204.804 27.3779 205.242 27.8623C205.695 28.3467 205.922 28.9404 205.922 29.6435C205.922 30.3154 205.695 30.8935 205.242 31.3779C204.804 31.8467 204.172 32.081 203.344 32.081C202.5 32.081 201.859 31.8467 201.422 31.3779C201 30.8935 200.789 30.3154 200.789 29.6435ZM226.43 57.3935V44.3388C226.43 43.3388 226.227 42.4717 225.821 41.7373C225.43 40.9873 224.837 40.4092 224.04 40.0029C223.243 39.5967 222.259 39.3935 221.087 39.3935C219.993 39.3935 219.032 39.581 218.204 39.956C217.391 40.331 216.751 40.8232 216.282 41.4326C215.829 42.042 215.602 42.6982 215.602 43.4013H211.266C211.266 42.4951 211.501 41.5967 211.969 40.706C212.438 39.8154 213.11 39.0107 213.985 38.292C214.876 37.5576 215.938 36.9795 217.173 36.5576C218.423 36.1201 219.813 35.9013 221.344 35.9013C223.188 35.9013 224.813 36.2138 226.219 36.8388C227.641 37.4638 228.751 38.4092 229.548 39.6748C230.36 40.9248 230.766 42.4951 230.766 44.3857V56.1982C230.766 57.042 230.837 57.9404 230.977 58.8935C231.134 59.8467 231.36 60.667 231.657 61.3545V61.7295H227.134C226.915 61.2295 226.743 60.5654 226.618 59.7373C226.493 58.8935 226.43 58.1123 226.43 57.3935ZM227.18 46.3545L227.227 49.4013H222.844C221.61 49.4013 220.509 49.5029 219.54 49.706C218.571 49.8935 217.759 50.1826 217.102 50.5732C216.446 50.9638 215.946 51.456 215.602 52.0498C215.259 52.6279 215.087 53.3076 215.087 54.0888C215.087 54.8857 215.266 55.6123 215.626 56.2685C215.985 56.9248 216.524 57.4482 217.243 57.8388C217.977 58.2138 218.876 58.4013 219.938 58.4013C221.266 58.4013 222.438 58.1201 223.454 57.5576C224.469 56.9951 225.274 56.3076 225.868 55.4951C226.477 54.6826 226.805 53.8935 226.852 53.1279L228.704 55.2138C228.594 55.8701 228.298 56.5967 227.813 57.3935C227.329 58.1904 226.68 58.956 225.868 59.6904C225.071 60.4092 224.118 61.0107 223.009 61.4951C221.915 61.9638 220.68 62.1982 219.305 62.1982C217.587 62.1982 216.079 61.8623 214.782 61.1904C213.501 60.5185 212.501 59.6201 211.782 58.4951C211.079 57.3545 210.727 56.081 210.727 54.6748C210.727 53.3154 210.993 52.1201 211.524 51.0888C212.055 50.042 212.821 49.1748 213.821 48.4873C214.821 47.7842 216.024 47.2529 217.43 46.8935C218.837 46.5342 220.407 46.3545 222.141 46.3545H227.18Z" fill="#131413"/>
</svg>
