<svg width="237" height="89" viewBox="0 0 237 89" fill="none" xmlns="http://www.w3.org/2000/svg">
<circle cx="50.0378" cy="59.3606" r="21.2895" transform="rotate(-156 50.0378 59.3606)" stroke="#008EC2" stroke-width="1.5"/>
<circle cx="46.24" cy="49.4671" r="25.2566" transform="rotate(-156 46.24 49.4671)" stroke="#008EC2" stroke-width="1.5"/>
<circle cx="42.4423" cy="39.5737" r="29.2237" transform="rotate(-156 42.4423 39.5737)" stroke="#008EC2" stroke-width="1.5"/>
<path d="M104.547 51.6172H95.4297V47.9375H104.547C106.312 47.9375 107.742 47.6562 108.836 47.0938C109.93 46.5312 110.727 45.75 111.227 44.75C111.742 43.75 112 42.6094 112 41.3281C112 40.1562 111.742 39.0547 111.227 38.0234C110.727 36.9922 109.93 36.1641 108.836 35.5391C107.742 34.8984 106.312 34.5781 104.547 34.5781H96.4844V65H91.9609V30.875H104.547C107.125 30.875 109.305 31.3203 111.086 32.2109C112.867 33.1016 114.219 34.3359 115.141 35.9141C116.062 37.4766 116.523 39.2656 116.523 41.2812C116.523 43.4688 116.062 45.3359 115.141 46.8828C114.219 48.4297 112.867 49.6094 111.086 50.4219C109.305 51.2188 107.125 51.6172 104.547 51.6172ZM119.149 52.6016V52.0625C119.149 50.2344 119.415 48.5391 119.946 46.9766C120.478 45.3984 121.243 44.0312 122.243 42.875C123.243 41.7031 124.454 40.7969 125.876 40.1562C127.298 39.5 128.892 39.1719 130.657 39.1719C132.438 39.1719 134.04 39.5 135.462 40.1562C136.899 40.7969 138.118 41.7031 139.118 42.875C140.134 44.0312 140.907 45.3984 141.438 46.9766C141.97 48.5391 142.235 50.2344 142.235 52.0625V52.6016C142.235 54.4297 141.97 56.125 141.438 57.6875C140.907 59.25 140.134 60.6172 139.118 61.7891C138.118 62.9453 136.907 63.8516 135.485 64.5078C134.079 65.1484 132.485 65.4688 130.704 65.4688C128.923 65.4688 127.321 65.1484 125.899 64.5078C124.478 63.8516 123.259 62.9453 122.243 61.7891C121.243 60.6172 120.478 59.25 119.946 57.6875C119.415 56.125 119.149 54.4297 119.149 52.6016ZM123.485 52.0625V52.6016C123.485 53.8672 123.634 55.0625 123.931 56.1875C124.228 57.2969 124.673 58.2812 125.267 59.1406C125.876 60 126.634 60.6797 127.54 61.1797C128.446 61.6641 129.501 61.9062 130.704 61.9062C131.892 61.9062 132.931 61.6641 133.821 61.1797C134.728 60.6797 135.478 60 136.071 59.1406C136.665 58.2812 137.11 57.2969 137.407 56.1875C137.72 55.0625 137.876 53.8672 137.876 52.6016V52.0625C137.876 50.8125 137.72 49.6328 137.407 48.5234C137.11 47.3984 136.657 46.4062 136.048 45.5469C135.454 44.6719 134.704 43.9844 133.798 43.4844C132.907 42.9844 131.86 42.7344 130.657 42.7344C129.47 42.7344 128.423 42.9844 127.517 43.4844C126.626 43.9844 125.876 44.6719 125.267 45.5469C124.673 46.4062 124.228 47.3984 123.931 48.5234C123.634 49.6328 123.485 50.8125 123.485 52.0625ZM151.424 29V65H147.064V29H151.424ZM164.55 62.375L171.604 39.6406H176.245L166.073 68.9141C165.839 69.5391 165.526 70.2109 165.136 70.9297C164.761 71.6641 164.276 72.3594 163.683 73.0156C163.089 73.6719 162.37 74.2031 161.526 74.6094C160.698 75.0312 159.706 75.2422 158.55 75.2422C158.206 75.2422 157.768 75.1953 157.237 75.1016C156.706 75.0078 156.331 74.9297 156.112 74.8672L156.089 71.3516C156.214 71.3672 156.409 71.3828 156.675 71.3984C156.956 71.4297 157.151 71.4453 157.261 71.4453C158.245 71.4453 159.081 71.3125 159.768 71.0469C160.456 70.7969 161.034 70.3672 161.503 69.7578C161.987 69.1641 162.401 68.3438 162.745 67.2969L164.55 62.375ZM159.37 39.6406L165.956 59.3281L167.081 63.8984L163.964 65.4922L154.636 39.6406H159.37ZM193.965 58.2734C193.965 57.6484 193.824 57.0703 193.543 56.5391C193.277 55.9922 192.723 55.5 191.879 55.0625C191.051 54.6094 189.801 54.2188 188.129 53.8906C186.723 53.5938 185.449 53.2422 184.308 52.8359C183.183 52.4297 182.223 51.9375 181.426 51.3594C180.644 50.7812 180.043 50.1016 179.621 49.3203C179.199 48.5391 178.988 47.625 178.988 46.5781C178.988 45.5781 179.207 44.6328 179.644 43.7422C180.098 42.8516 180.73 42.0625 181.543 41.375C182.371 40.6875 183.363 40.1484 184.519 39.7578C185.676 39.3672 186.965 39.1719 188.387 39.1719C190.418 39.1719 192.152 39.5312 193.59 40.25C195.027 40.9688 196.129 41.9297 196.894 43.1328C197.66 44.3203 198.043 45.6406 198.043 47.0938H193.707C193.707 46.3906 193.496 45.7109 193.074 45.0547C192.668 44.3828 192.066 43.8281 191.269 43.3906C190.488 42.9531 189.527 42.7344 188.387 42.7344C187.183 42.7344 186.207 42.9219 185.457 43.2969C184.723 43.6562 184.183 44.1172 183.84 44.6797C183.512 45.2422 183.348 45.8359 183.348 46.4609C183.348 46.9297 183.426 47.3516 183.582 47.7266C183.754 48.0859 184.051 48.4219 184.473 48.7344C184.894 49.0312 185.488 49.3125 186.254 49.5781C187.019 49.8438 187.996 50.1094 189.183 50.375C191.262 50.8438 192.973 51.4062 194.316 52.0625C195.66 52.7188 196.66 53.5234 197.316 54.4766C197.973 55.4297 198.301 56.5859 198.301 57.9453C198.301 59.0547 198.066 60.0703 197.598 60.9922C197.144 61.9141 196.48 62.7109 195.605 63.3828C194.746 64.0391 193.715 64.5547 192.512 64.9297C191.324 65.2891 189.988 65.4688 188.504 65.4688C186.269 65.4688 184.379 65.0703 182.832 64.2734C181.285 63.4766 180.113 62.4453 179.316 61.1797C178.519 59.9141 178.121 58.5781 178.121 57.1719H182.48C182.543 58.3594 182.887 59.3047 183.512 60.0078C184.137 60.6953 184.902 61.1875 185.808 61.4844C186.715 61.7656 187.613 61.9062 188.504 61.9062C189.691 61.9062 190.683 61.75 191.48 61.4375C192.293 61.125 192.91 60.6953 193.332 60.1484C193.754 59.6016 193.965 58.9766 193.965 58.2734ZM207.747 39.6406V65H203.387V39.6406H207.747ZM203.059 32.9141C203.059 32.2109 203.27 31.6172 203.692 31.1328C204.13 30.6484 204.77 30.4062 205.614 30.4062C206.442 30.4062 207.075 30.6484 207.512 31.1328C207.966 31.6172 208.192 32.2109 208.192 32.9141C208.192 33.5859 207.966 34.1641 207.512 34.6484C207.075 35.1172 206.442 35.3516 205.614 35.3516C204.77 35.3516 204.13 35.1172 203.692 34.6484C203.27 34.1641 203.059 33.5859 203.059 32.9141ZM228.701 60.6641V47.6094C228.701 46.6094 228.498 45.7422 228.092 45.0078C227.701 44.2578 227.107 43.6797 226.31 43.2734C225.513 42.8672 224.529 42.6641 223.357 42.6641C222.263 42.6641 221.302 42.8516 220.474 43.2266C219.662 43.6016 219.021 44.0938 218.552 44.7031C218.099 45.3125 217.873 45.9688 217.873 46.6719H213.537C213.537 45.7656 213.771 44.8672 214.24 43.9766C214.709 43.0859 215.381 42.2812 216.256 41.5625C217.146 40.8281 218.209 40.25 219.443 39.8281C220.693 39.3906 222.084 39.1719 223.615 39.1719C225.459 39.1719 227.084 39.4844 228.49 40.1094C229.912 40.7344 231.021 41.6797 231.818 42.9453C232.631 44.1953 233.037 45.7656 233.037 47.6562V59.4688C233.037 60.3125 233.107 61.2109 233.248 62.1641C233.404 63.1172 233.631 63.9375 233.927 64.625V65H229.404C229.185 64.5 229.013 63.8359 228.888 63.0078C228.763 62.1641 228.701 61.3828 228.701 60.6641ZM229.451 49.625L229.498 52.6719H225.115C223.881 52.6719 222.779 52.7734 221.81 52.9766C220.842 53.1641 220.029 53.4531 219.373 53.8438C218.717 54.2344 218.217 54.7266 217.873 55.3203C217.529 55.8984 217.357 56.5781 217.357 57.3594C217.357 58.1562 217.537 58.8828 217.896 59.5391C218.256 60.1953 218.795 60.7188 219.513 61.1094C220.248 61.4844 221.146 61.6719 222.209 61.6719C223.537 61.6719 224.709 61.3906 225.724 60.8281C226.74 60.2656 227.545 59.5781 228.138 58.7656C228.748 57.9531 229.076 57.1641 229.123 56.3984L230.974 58.4844C230.865 59.1406 230.568 59.8672 230.084 60.6641C229.599 61.4609 228.951 62.2266 228.138 62.9609C227.342 63.6797 226.388 64.2812 225.279 64.7656C224.185 65.2344 222.951 65.4688 221.576 65.4688C219.857 65.4688 218.349 65.1328 217.052 64.4609C215.771 63.7891 214.771 62.8906 214.052 61.7656C213.349 60.625 212.998 59.3516 212.998 57.9453C212.998 56.5859 213.263 55.3906 213.795 54.3594C214.326 53.3125 215.092 52.4453 216.092 51.7578C217.092 51.0547 218.295 50.5234 219.701 50.1641C221.107 49.8047 222.677 49.625 224.412 49.625H229.451Z" fill="#F5FAFC"/>
</svg>
