<svg width="30" height="48" viewBox="0 0 30 48" fill="none" xmlns="http://www.w3.org/2000/svg">
<rect x="3" y="10.5" width="27" height="3" transform="rotate(90 3 10.5)" fill="url(#paint0_linear_11_7)"/>
<path d="M9.92 29.12V25.56H16.28C18.6 25.56 20.3333 25.1067 21.48 24.2C22.6533 23.2933 23.24 21.8 23.24 19.72C23.24 17.8533 22.6933 16.4533 21.6 15.52C20.5333 14.5867 18.88 14.12 16.64 14.12H9.92V10.6H16.72C18.4533 10.6 19.9867 10.8 21.32 11.2C22.68 11.6 23.8267 12.1867 24.76 12.96C25.72 13.7333 26.44 14.7067 26.92 15.88C27.4267 17.0267 27.68 18.36 27.68 19.88C27.68 21.88 27.2267 23.5733 26.32 24.96C25.4133 26.32 24.0667 27.36 22.28 28.08C20.52 28.7733 18.3333 29.12 15.72 29.12H9.92ZM7.28 37V10.6H11.64V37H7.28Z" fill="#0054C9"/>
<defs>
<linearGradient id="paint0_linear_11_7" x1="3" y1="12" x2="30" y2="12" gradientUnits="userSpaceOnUse">
<stop stop-color="#0054C9" stop-opacity="0.15"/>
<stop offset="0.5" stop-color="#0054C9" stop-opacity="0.55"/>
<stop offset="1" stop-color="#0054C9"/>
</linearGradient>
</defs>
</svg>
